<svg width="138" height="22" viewBox="0 0 138 22" fill="none" xmlns="http://www.w3.org/2000/svg">
<path d="M0.492 17V0.199999H4.38V13.832H12.804V17H0.492ZM20.8861 17.192C19.5101 17.192 18.2861 16.904 17.2141 16.328C16.1581 15.752 15.3181 14.968 14.6941 13.976C14.0861 12.968 13.7821 11.824 13.7821 10.544C13.7821 9.248 14.0861 8.104 14.6941 7.112C15.3181 6.104 16.1581 5.32 17.2141 4.76C18.2861 4.184 19.5101 3.896 20.8861 3.896C22.2461 3.896 23.4621 4.184 24.5341 4.76C25.6061 5.32 26.4461 6.096 27.0541 7.088C27.6621 8.08 27.9661 9.232 27.9661 10.544C27.9661 11.824 27.6621 12.968 27.0541 13.976C26.4461 14.968 25.6061 15.752 24.5341 16.328C23.4621 16.904 22.2461 17.192 20.8861 17.192ZM20.8861 14.12C21.5101 14.12 22.0701 13.976 22.5661 13.688C23.0621 13.4 23.4541 12.992 23.7421 12.464C24.0301 11.92 24.1741 11.28 24.1741 10.544C24.1741 9.792 24.0301 9.152 23.7421 8.624C23.4541 8.096 23.0621 7.688 22.5661 7.4C22.0701 7.112 21.5101 6.968 20.8861 6.968C20.2621 6.968 19.7021 7.112 19.2061 7.4C18.7101 7.688 18.3101 8.096 18.0061 8.624C17.7181 9.152 17.5741 9.792 17.5741 10.544C17.5741 11.28 17.7181 11.92 18.0061 12.464C18.3101 12.992 18.7101 13.4 19.2061 13.688C19.7021 13.976 20.2621 14.12 20.8861 14.12ZM36.6406 21.848C35.4246 21.848 34.2486 21.696 33.1126 21.392C31.9926 21.104 31.0566 20.664 30.3046 20.072L31.7926 17.384C32.3366 17.832 33.0246 18.184 33.8566 18.44C34.7046 18.712 35.5366 18.848 36.3526 18.848C37.6806 18.848 38.6406 18.552 39.2326 17.96C39.8406 17.368 40.1446 16.488 40.1446 15.32V13.376L40.3846 10.136L40.3366 6.872V4.088H43.8886V14.84C43.8886 17.24 43.2646 19.008 42.0166 20.144C40.7686 21.28 38.9766 21.848 36.6406 21.848ZM36.0646 16.376C34.8646 16.376 33.7766 16.12 32.8006 15.608C31.8406 15.08 31.0646 14.352 30.4726 13.424C29.8966 12.48 29.6086 11.384 29.6086 10.136C29.6086 8.872 29.8966 7.776 30.4726 6.848C31.0646 5.904 31.8406 5.176 32.8006 4.664C33.7766 4.152 34.8646 3.896 36.0646 3.896C37.1526 3.896 38.1126 4.12 38.9446 4.568C39.7766 5 40.4246 5.68 40.8886 6.608C41.3526 7.52 41.5846 8.696 41.5846 10.136C41.5846 11.56 41.3526 12.736 40.8886 13.664C40.4246 14.576 39.7766 15.256 38.9446 15.704C38.1126 16.152 37.1526 16.376 36.0646 16.376ZM36.8086 13.304C37.4646 13.304 38.0486 13.176 38.5606 12.92C39.0726 12.648 39.4726 12.272 39.7606 11.792C40.0486 11.312 40.1926 10.76 40.1926 10.136C40.1926 9.496 40.0486 8.944 39.7606 8.48C39.4726 8 39.0726 7.632 38.5606 7.376C38.0486 7.104 37.4646 6.968 36.8086 6.968C36.1526 6.968 35.5686 7.104 35.0566 7.376C34.5446 7.632 34.1366 8 33.8326 8.48C33.5446 8.944 33.4006 9.496 33.4006 10.136C33.4006 10.76 33.5446 11.312 33.8326 11.792C34.1366 12.272 34.5446 12.648 35.0566 12.92C35.5686 13.176 36.1526 13.304 36.8086 13.304ZM53.6173 17.192C52.2413 17.192 51.0173 16.904 49.9453 16.328C48.8893 15.752 48.0493 14.968 47.4253 13.976C46.8173 12.968 46.5133 11.824 46.5133 10.544C46.5133 9.248 46.8173 8.104 47.4253 7.112C48.0493 6.104 48.8893 5.32 49.9453 4.76C51.0173 4.184 52.2413 3.896 53.6173 3.896C54.9773 3.896 56.1933 4.184 57.2653 4.76C58.3373 5.32 59.1773 6.096 59.7853 7.088C60.3933 8.08 60.6973 9.232 60.6973 10.544C60.6973 11.824 60.3933 12.968 59.7853 13.976C59.1773 14.968 58.3373 15.752 57.2653 16.328C56.1933 16.904 54.9773 17.192 53.6173 17.192ZM53.6173 14.12C54.2413 14.12 54.8013 13.976 55.2973 13.688C55.7933 13.4 56.1853 12.992 56.4733 12.464C56.7613 11.92 56.9053 11.28 56.9053 10.544C56.9053 9.792 56.7613 9.152 56.4733 8.624C56.1853 8.096 55.7933 7.688 55.2973 7.4C54.8013 7.112 54.2413 6.968 53.6173 6.968C52.9933 6.968 52.4333 7.112 51.9373 7.4C51.4413 7.688 51.0413 8.096 50.7373 8.624C50.4493 9.152 50.3053 9.792 50.3053 10.544C50.3053 11.28 50.4493 11.92 50.7373 12.464C51.0413 12.992 51.4413 13.4 51.9373 13.688C52.4333 13.976 52.9933 14.12 53.6173 14.12ZM63.5639 17V0.199999H66.7799L73.9319 12.056H72.2279L79.2599 0.199999H82.4519L82.4999 17H78.8519L78.8279 5.792H79.4999L73.8839 15.224H72.1319L66.3959 5.792H67.2119V17H63.5639ZM94.2418 17V14.48L94.0018 13.928V9.416C94.0018 8.616 93.7538 7.992 93.2578 7.544C92.7778 7.096 92.0338 6.872 91.0258 6.872C90.3378 6.872 89.6578 6.984 88.9858 7.208C88.3298 7.416 87.7698 7.704 87.3058 8.072L85.9618 5.456C86.6658 4.96 87.5138 4.576 88.5058 4.304C89.4978 4.032 90.5058 3.896 91.5298 3.896C93.4978 3.896 95.0258 4.36 96.1138 5.288C97.2018 6.216 97.7458 7.664 97.7458 9.632V17H94.2418ZM90.3058 17.192C89.2978 17.192 88.4338 17.024 87.7138 16.688C86.9938 16.336 86.4418 15.864 86.0578 15.272C85.6738 14.68 85.4818 14.016 85.4818 13.28C85.4818 12.512 85.6658 11.84 86.0338 11.264C86.4178 10.688 87.0178 10.24 87.8338 9.92C88.6498 9.584 89.7138 9.416 91.0258 9.416H94.4578V11.6H91.4338C90.5538 11.6 89.9458 11.744 89.6098 12.032C89.2898 12.32 89.1298 12.68 89.1298 13.112C89.1298 13.592 89.3138 13.976 89.6818 14.264C90.0658 14.536 90.5858 14.672 91.2418 14.672C91.8658 14.672 92.4258 14.528 92.9218 14.24C93.4178 13.936 93.7778 13.496 94.0018 12.92L94.5778 14.648C94.3058 15.48 93.8098 16.112 93.0898 16.544C92.3698 16.976 91.4418 17.192 90.3058 17.192ZM101.234 17V4.088H104.81V7.736L104.306 6.68C104.69 5.768 105.306 5.08 106.154 4.616C107.002 4.136 108.034 3.896 109.25 3.896V7.352C109.09 7.336 108.946 7.328 108.818 7.328C108.69 7.312 108.554 7.304 108.41 7.304C107.386 7.304 106.554 7.6 105.914 8.192C105.29 8.768 104.978 9.672 104.978 10.904V17H101.234ZM117.723 17.192C116.331 17.192 115.091 16.912 114.003 16.352C112.915 15.776 112.059 14.984 111.435 13.976C110.827 12.968 110.523 11.824 110.523 10.544C110.523 9.248 110.827 8.104 111.435 7.112C112.059 6.104 112.915 5.32 114.003 4.76C115.091 4.184 116.331 3.896 117.723 3.896C119.083 3.896 120.267 4.184 121.275 4.76C122.283 5.32 123.027 6.128 123.507 7.184L120.603 8.744C120.267 8.136 119.843 7.688 119.331 7.4C118.835 7.112 118.291 6.968 117.699 6.968C117.059 6.968 116.483 7.112 115.971 7.4C115.459 7.688 115.051 8.096 114.747 8.624C114.459 9.152 114.315 9.792 114.315 10.544C114.315 11.296 114.459 11.936 114.747 12.464C115.051 12.992 115.459 13.4 115.971 13.688C116.483 13.976 117.059 14.12 117.699 14.12C118.291 14.12 118.835 13.984 119.331 13.712C119.843 13.424 120.267 12.968 120.603 12.344L123.507 13.928C123.027 14.968 122.283 15.776 121.275 16.352C120.267 16.912 119.083 17.192 117.723 17.192ZM133.682 17V14.48L133.442 13.928V9.416C133.442 8.616 133.194 7.992 132.698 7.544C132.218 7.096 131.474 6.872 130.466 6.872C129.778 6.872 129.098 6.984 128.426 7.208C127.77 7.416 127.21 7.704 126.746 8.072L125.402 5.456C126.106 4.96 126.954 4.576 127.946 4.304C128.938 4.032 129.946 3.896 130.97 3.896C132.938 3.896 134.466 4.36 135.554 5.288C136.642 6.216 137.186 7.664 137.186 9.632V17H133.682ZM129.746 17.192C128.738 17.192 127.874 17.024 127.154 16.688C126.434 16.336 125.882 15.864 125.498 15.272C125.114 14.68 124.922 14.016 124.922 13.28C124.922 12.512 125.106 11.84 125.474 11.264C125.858 10.688 126.458 10.24 127.274 9.92C128.09 9.584 129.154 9.416 130.466 9.416H133.898V11.6H130.874C129.994 11.6 129.386 11.744 129.05 12.032C128.73 12.32 128.57 12.68 128.57 13.112C128.57 13.592 128.754 13.976 129.122 14.264C129.506 14.536 130.026 14.672 130.682 14.672C131.306 14.672 131.866 14.528 132.362 14.24C132.858 13.936 133.218 13.496 133.442 12.92L134.018 14.648C133.746 15.48 133.25 16.112 132.53 16.544C131.81 16.976 130.882 17.192 129.746 17.192Z" fill="#252B42"/>
</svg>
